<svg viewBox="0 0 64 64" xmlns="http://www.w3.org/2000/svg"><path d="M53.213 10.786c-11.715-11.715-30.711-11.715-42.426 0-11.716 11.717-11.716 30.71 0 42.427 11.715 11.715 30.711 11.715 42.426 0 11.716-11.717 11.716-30.71 0-42.427M46 52.998l-3.86-4.24c-3.082 1.996-6.623 3.088-10.331 3.088-10.922 0-16.861-5.77-16.861-17.136l4.895-3.711c0 7.234 5.368 12.58 11.966 12.58 1.64 0 3.227-.354 4.691-1.016l-3.942-4.33L44.272 33.2 46 52.998m-1.832-21.999c0-6.853-5.36-11.982-11.948-11.982a11.96 11.96 0 0 0-4.895 1.041l4.207 4.088-15.159 2.44L18 10.999l3.456 3.357c3.207-2.084 6.918-3.17 10.764-3.17 10.906 0 18.255 3.805 18.255 14.576l-6.307 5.236v.001Z" fill="#00acc1"/></svg>